<svg width="375" height="219" viewBox="0 0 375 219" fill="none" xmlns="http://www.w3.org/2000/svg">
<g clip-path="url(#clip0_2008_2863)">
<rect width="375" height="219" fill="#0D0D1B"/>
<g clip-path="url(#clip1_2008_2863)">
<mask id="mask0_2008_2863" style="mask-type:alpha" maskUnits="userSpaceOnUse" x="-321" y="-155" width="1040" height="692">
<rect x="-321" y="-155" width="1040" height="692" fill="url(#paint0_diamond_2008_2863)"/>
</mask>
<g mask="url(#mask0_2008_2863)">
<g opacity="0.7">
<circle cx="72.2973" cy="205.941" r="0.866106" fill="white" fill-opacity="0.3"/>
<circle cx="1.60843" cy="168.994" r="0.621616" fill="white" fill-opacity="0.6"/>
<circle cx="133.096" cy="100.393" r="0.690477" fill="white" fill-opacity="0.6"/>
<circle cx="12.4037" cy="50.739" r="0.76211" fill="white" fill-opacity="0.5"/>
<circle cx="69.1681" cy="43.5704" r="0.69691" fill="white" fill-opacity="0.5"/>
<circle cx="262.168" cy="102.191" r="0.711451" fill="white" fill-opacity="0.6"/>
<circle cx="122.443" cy="115.196" r="0.693902" fill="white" fill-opacity="0.3"/>
<circle cx="372.826" cy="63.672" r="0.671636" fill="white" fill-opacity="0.5"/>
<circle cx="1.12279" cy="28.8032" r="0.729233" fill="white" fill-opacity="0.4"/>
<circle cx="227.811" cy="96.2495" r="0.689881" fill="white" fill-opacity="0.5"/>
<circle cx="132.578" cy="152.562" r="0.765212" fill="white" fill-opacity="0.4"/>
<circle cx="205.936" cy="78.518" r="0.718168" fill="white" fill-opacity="0.6"/>
<circle cx="354.043" cy="117.11" r="0.831583" fill="white" fill-opacity="0.4"/>
<circle cx="29.6138" cy="183.384" r="0.80469" fill="white" fill-opacity="0.5"/>
<circle cx="35.466" cy="8.68301" r="0.735984" fill="white" fill-opacity="0.4"/>
<circle cx="358.754" cy="191.673" r="0.806592" fill="white" fill-opacity="0.4"/>
<circle cx="77.5632" cy="88.0759" r="0.804401" fill="white" fill-opacity="0.4"/>
<circle cx="353.292" cy="26.9695" r="0.671462" fill="white" fill-opacity="0.6"/>
<circle cx="16.0543" cy="40.1817" r="0.859953" fill="white" fill-opacity="0.6"/>
<circle cx="242.772" cy="57.9322" r="0.85128" fill="white" fill-opacity="0.6"/>
<circle cx="348.076" cy="38.33" r="0.784446" fill="white" fill-opacity="0.3"/>
<circle cx="285.221" cy="75.5186" r="0.678364" fill="white" fill-opacity="0.4"/>
<circle cx="129.655" cy="216.532" r="0.802016" fill="white" fill-opacity="0.4"/>
<circle cx="55.6197" cy="211.757" r="0.763236" fill="white" fill-opacity="0.4"/>
<circle cx="244.373" cy="84.9882" r="0.676482" fill="white" fill-opacity="0.6"/>
<circle cx="160.284" cy="16.291" r="0.648472" fill="white" fill-opacity="0.4"/>
<circle cx="7.61861" cy="219.402" r="0.711873" fill="white" fill-opacity="0.5"/>
<circle cx="325.602" cy="63.2132" r="0.804688" fill="white" fill-opacity="0.5"/>
<circle cx="119.592" cy="124.185" r="0.803196" fill="white" fill-opacity="0.5"/>
<circle cx="155.784" cy="57.372" r="0.883131" fill="white" fill-opacity="0.5"/>
<circle cx="171.61" cy="100.43" r="0.727048" fill="white" fill-opacity="0.6"/>
<circle cx="102.969" cy="57.2437" r="0.754837" fill="white" fill-opacity="0.5"/>
<circle cx="26.4631" cy="101.501" r="0.614002" fill="white" fill-opacity="0.4"/>
<circle cx="180.561" cy="31.2402" r="0.798039" fill="white" fill-opacity="0.6"/>
<circle cx="38.9863" cy="0.956793" r="0.705573" fill="white" fill-opacity="0.3"/>
<circle cx="96.5509" cy="59.7056" r="0.848304" fill="white" fill-opacity="0.5"/>
<circle cx="288.733" cy="57.7188" r="0.637861" fill="white" fill-opacity="0.5"/>
<circle cx="179.299" cy="64.9042" r="0.719579" fill="white" fill-opacity="0.5"/>
<circle cx="266.43" cy="137.828" r="0.830232" fill="white" fill-opacity="0.4"/>
<circle cx="336.085" cy="1.47601" r="0.632627" fill="white" fill-opacity="0.5"/>
<circle cx="57.9971" cy="75.0218" r="0.773981" fill="white" fill-opacity="0.3"/>
<circle cx="77.3735" cy="9.15354" r="0.614725" fill="white" fill-opacity="0.3"/>
<circle cx="120.202" cy="76.2525" r="0.820446" fill="white" fill-opacity="0.5"/>
<circle cx="124.12" cy="5.5812" r="0.593954" fill="white" fill-opacity="0.6"/>
<circle cx="52.0762" cy="109.946" r="0.771508" fill="white" fill-opacity="0.3"/>
<circle cx="245.023" cy="161.412" r="0.734636" fill="white" fill-opacity="0.5"/>
<circle cx="125.992" cy="101.579" r="0.692114" fill="white" fill-opacity="0.5"/>
</g>
<g opacity="0.6">
<g opacity="0.1">
<g clip-path="url(#clip2_2008_2863)">
<path d="M19.9106 -77.1694V785.817" stroke="white" stroke-width="0.654481"/>
<path d="M61.7974 -77.1694V785.817" stroke="white" stroke-width="0.654481"/>
<path d="M103.684 -77.1694V785.817" stroke="white" stroke-width="0.654481"/>
<path d="M145.571 -77.1694V785.817" stroke="white" stroke-width="0.654481"/>
<path d="M187.458 -77.1694V785.817" stroke="white" stroke-width="0.654481"/>
<path d="M229.344 -77.1694V785.817" stroke="white" stroke-width="0.654481"/>
<path d="M271.231 -77.1694V785.817" stroke="white" stroke-width="0.654481"/>
<path d="M313.118 -77.1694V785.817" stroke="white" stroke-width="0.654481"/>
<path d="M355.005 -77.1694V785.817" stroke="white" stroke-width="0.654481"/>
</g>
<g clip-path="url(#clip3_2008_2863)">
<path d="M-315.184 6.60406L933 6.60406" stroke="white" stroke-width="0.654481"/>
<path d="M-315.184 48.4908L933 48.4908" stroke="white" stroke-width="0.654481"/>
<path d="M-315.184 90.3776L933 90.3776" stroke="white" stroke-width="0.654481"/>
<path d="M-315.184 132.264L933 132.264" stroke="white" stroke-width="0.654481"/>
<path d="M-315.184 174.151L933 174.151" stroke="white" stroke-width="0.654481"/>
<path d="M-315.184 216.038L933 216.038" stroke="white" stroke-width="0.654481"/>
</g>
</g>
</g>
</g>
</g>
<g filter="url(#filter0_f_2008_2863)">
<path d="M100 133.037L375.652 281.322L468.553 -35.0045L312.749 -118.818L100 133.037Z" fill="url(#paint1_linear_2008_2863)" fill-opacity="0.15"/>
</g>
</g>
<defs>
<filter id="filter0_f_2008_2863" x="36.2667" y="-182.551" width="496.019" height="527.607" filterUnits="userSpaceOnUse" color-interpolation-filters="sRGB">
<feFlood flood-opacity="0" result="BackgroundImageFix"/>
<feBlend mode="normal" in="SourceGraphic" in2="BackgroundImageFix" result="shape"/>
<feGaussianBlur stdDeviation="31.8666" result="effect1_foregroundBlur_2008_2863"/>
</filter>
<radialGradient id="paint0_diamond_2008_2863" cx="0" cy="0" r="1" gradientUnits="userSpaceOnUse" gradientTransform="translate(199 144.369) rotate(90) scale(376.812 876.393)">
<stop stop-color="white"/>
<stop offset="1" stop-color="#D9D9D9" stop-opacity="0"/>
</radialGradient>
<linearGradient id="paint1_linear_2008_2863" x1="237.826" y1="207.179" x2="358.894" y2="-30.8108" gradientUnits="userSpaceOnUse">
<stop stop-color="white" stop-opacity="0"/>
<stop offset="1" stop-color="white"/>
</linearGradient>
<clipPath id="clip0_2008_2863">
<rect width="375" height="219" fill="white"/>
</clipPath>
<clipPath id="clip1_2008_2863">
<rect width="376" height="272" fill="white" transform="translate(-1)"/>
</clipPath>
<clipPath id="clip2_2008_2863">
<rect width="1248.18" height="806.841" fill="white" transform="translate(-315.184 -77.1694)"/>
</clipPath>
<clipPath id="clip3_2008_2863">
<rect width="1248.18" height="806.841" fill="white" transform="translate(-315.184 -77.1694)"/>
</clipPath>
</defs>
</svg>
